<svg width="52" height="105" viewBox="0 0 52 105" fill="none" xmlns="http://www.w3.org/2000/svg">
<g clip-path="url(#clip0_52_3626)">
<path d="M0 53.3635H25.0411V78.4046H0V53.3635Z" fill="#0468B1"/>
<path d="M6.38989 57.3355V67.1793C6.38989 72.3602 8.98035 74.2599 12.4343 74.2599C16.0609 74.2599 18.6514 72.1875 18.6514 67.0066V57.1628H16.579V67.1793C16.579 70.8059 14.8521 72.5329 12.4343 72.5329C10.1892 72.5329 8.46226 70.9786 8.46226 67.1793V57.3355H6.38989Z" fill="white"/>
<path d="M26.5955 53.3635H51.6366V78.4046H26.5955V53.3635Z" fill="#0468B1"/>
<path d="M34.8849 74.2599V67.1793C34.8849 64.4161 34.8849 62.3437 34.7122 60.2714C35.5757 62.171 36.6119 64.0707 37.8208 65.7977L43.1744 74.2599H45.4195V57.6809H43.5198V64.7615C43.5198 67.352 43.5198 69.4243 43.8652 71.6694C43.1744 69.9424 42.1382 68.2154 40.9293 66.1431L35.5757 57.6809H33.158V74.4325L34.8849 74.2599Z" fill="white"/>
<path d="M26.5955 79.9589H51.6366V105H26.5955V79.9589Z" fill="#0468B1"/>
<path d="M43.347 85.3125C42.3108 84.449 40.7565 83.9309 38.5114 83.9309C36.7845 83.9309 35.4029 84.1036 34.3667 84.2763V100.855H36.4391V94.1201C36.9572 94.2928 37.4753 94.2928 38.166 94.2928C40.2384 94.2928 42.1381 93.602 43.1743 92.3931C44.0378 91.5296 44.5558 90.3207 44.5558 88.7664C44.9012 87.3849 44.3831 86.176 43.347 85.3125Z" fill="white"/>
<path d="M38.5115 92.5658C37.8207 92.5658 37.1299 92.5658 36.6118 92.3931V86.0033C36.9572 86.0033 37.648 85.8306 38.6842 85.8306C41.102 85.8306 42.6562 86.8668 42.6562 89.1118C42.6562 91.3569 41.102 92.5658 38.5115 92.5658ZM0 79.9589H25.0411V105H0V79.9589Z" fill="#0468B1"/>
<path d="M17.6151 86.0033C16.2335 84.6217 13.9884 83.9309 10.8799 83.9309C9.1529 83.9309 7.59862 84.1036 6.21704 84.2763V100.855C7.25323 101.028 8.6348 101.028 10.1891 101.028C13.4703 101.028 16.0608 100.164 17.6151 98.6102C19.1693 97.0559 20.0328 94.8108 20.0328 92.2204C20.0328 89.2845 19.1693 87.3849 17.6151 86.0033Z" fill="white"/>
<path d="M10.7072 99.1283C9.84375 99.1283 8.98026 99.1283 8.46217 98.9556V85.8306C8.98026 85.6579 9.84375 85.4852 11.0526 85.4852C15.7155 85.4852 17.7878 87.903 17.7878 91.875C17.7878 96.5378 15.1974 99.301 10.7072 99.1283ZM0 0H51.8092V51.8092H0V0Z" fill="#0468B1"/>
<path d="M44.3832 26.9408C43.6924 27.977 42.6563 28.8405 42.1382 30.0493C42.1382 29.1859 42.3109 28.1497 41.9655 27.4589C41.4474 25.7319 40.9293 24.1776 40.7566 22.1053V21.4145C41.102 23.3142 43.0017 24.6957 42.829 26.7681C42.829 27.2862 42.6563 27.8043 42.4836 28.1497V27.977C42.829 26.9408 42.829 25.9046 43.3471 24.8684C44.0378 23.4868 44.7286 22.1053 44.3832 20.3783C45.7648 22.4507 45.4194 25.0411 44.3832 26.9408Z" fill="white"/>
<path d="M43.347 16.2336C44.5558 17.9606 44.9012 20.551 43.865 22.4507C43.5196 23.3142 43.3469 24.1777 43.1743 25.0411C43.1743 24.8685 43.1743 24.6958 43.0016 24.5231C42.6562 22.6234 40.7565 21.2418 40.0657 19.6875C39.7203 19.1694 39.7203 18.6513 39.5476 17.7879C40.2384 19.1694 42.1381 19.8602 42.8289 21.5872C43.1743 21.9326 43.0016 22.4507 43.1743 22.9688C42.8289 21.2418 43.0016 19.6875 43.1743 18.1333C43.1743 17.2698 43.0016 16.4063 42.6562 15.7155C42.8289 15.5428 43.0016 15.8882 43.347 16.2336Z" fill="white"/>
<path d="M42.4835 15.8882C42.8289 17.2697 42.3108 18.6513 42.6562 20.2056C41.7928 18.6513 40.2385 17.9605 39.0296 16.7516C38.3388 16.0609 37.9934 15.0247 37.9934 14.1612C38.6842 15.7155 40.4112 16.0609 41.4474 17.4424C41.7928 17.7878 41.7927 18.1332 42.1381 18.4786C41.6201 17.2697 41.2747 15.8882 41.102 14.3339L40.0658 12.7796C41.102 13.125 42.1381 14.5066 42.4835 15.8882Z" fill="white"/>
<path d="M38.8569 12.6069C39.8931 13.6431 40.2385 14.6793 40.5839 15.8882L40.7566 16.2336C39.375 15.1974 37.9935 13.6431 36.9573 12.2615L35.9211 11.0526C36.7846 11.398 37.9935 11.7434 38.8569 12.6069ZM19.6875 11.398C21.5872 10.3618 23.8323 10.0164 25.9046 9.84375C31.0856 9.84375 36.0938 12.9523 38.3389 17.6151C39.7204 20.3783 40.2385 24.1776 39.375 27.2862C38.3389 31.0855 35.2303 34.7122 31.6037 36.2664C27.4589 38.1661 21.7599 37.8207 18.1333 35.2303C13.125 31.949 11.0527 25.9046 12.6069 20.0329C13.4704 16.5789 16.2336 12.9523 19.6875 11.398ZM15.7155 11.398C14.6793 12.2615 13.9885 13.4704 13.125 14.5066C12.4342 15.1974 11.5708 15.8882 10.7073 16.5789C11.2254 15.5428 11.2254 14.5066 11.9162 13.8158C12.7796 12.2615 14.3339 11.9161 15.7155 11.398Z" fill="white"/>
<path d="M10.0164 14.5065C10.3618 13.8158 11.0526 13.4704 11.9161 13.2977C10.5345 14.3339 10.7072 15.8881 10.1891 17.4424C10.0164 17.7878 9.84371 18.4786 9.67101 18.824C10.0164 18.3059 10.3618 17.7878 10.7072 17.097C11.7434 16.0608 13.125 15.5427 13.6431 14.1612C13.6431 16.0608 12.0888 17.4424 10.5345 18.4786C9.84371 18.9967 9.32562 19.5148 8.98022 20.3783V18.9967C9.15292 17.4424 8.98023 15.5427 10.0164 14.5065Z" fill="white"/>
<path d="M7.42603 19.8602C7.42603 18.1332 8.11682 16.9243 8.98031 15.7155C7.94413 17.2697 8.80761 19.3421 8.63492 21.0691L8.46222 22.9687C8.46222 22.6233 8.46222 22.6233 8.63492 22.278C8.98031 20.7237 10.1892 19.6875 11.2254 18.6513C11.5708 18.3059 11.5708 18.1332 11.7435 17.7878C11.5708 18.4786 11.3981 19.3421 11.0527 20.0329C10.1892 21.7599 8.46222 23.1414 8.28952 25.0411C8.46222 23.3141 7.08064 21.7599 7.42603 19.8602Z" fill="white"/>
<path d="M6.56262 22.278L7.08071 20.7237C6.73531 22.7961 8.11689 24.523 8.63498 26.25L9.15308 28.3224C8.46229 26.4227 9.49847 24.523 10.5347 22.7961C10.8801 22.4507 10.8801 21.9326 11.0527 21.4145C11.2254 22.278 10.8801 23.3142 10.7074 24.1776C10.362 25.2138 10.0166 26.5954 9.67117 27.6316C9.32577 28.3224 9.49847 29.1859 9.67117 29.8767C8.98038 28.4951 7.4261 27.2862 7.08071 25.7319C6.56262 24.8684 6.21722 23.4869 6.56262 22.278Z" fill="white"/>
<path d="M6.38989 26.4227C6.56259 28.6678 8.98035 29.8766 10.1892 31.949C10.5346 32.2944 10.7073 32.6398 11.2254 32.9852C11.2254 32.6398 10.88 32.6398 10.88 32.2944C10.5346 31.4309 10.3619 30.5674 10.5346 29.7039C10.7073 28.6678 11.0527 27.4589 10.88 26.25C11.9162 28.3224 11.5708 31.0855 12.0889 33.3306C12.2616 33.8487 12.4343 34.3668 12.7797 34.7122C10.7073 33.3306 7.94417 32.1217 7.08068 29.3586C6.38989 28.4951 6.38989 27.4589 6.38989 26.4227Z" fill="white"/>
<path d="M7.77148 31.6036C8.80767 34.1941 11.9162 34.3668 13.6432 35.9211C13.8159 36.2665 14.334 36.6119 14.6794 36.6119C14.334 36.2665 13.6432 35.7484 13.4705 35.2303C12.4343 33.676 12.7797 31.431 11.9162 29.704C12.607 30.7402 13.2978 31.6036 13.8159 32.8125C14.5067 34.5395 14.8521 36.4392 16.4064 37.6481C14.6794 37.13 12.607 37.3027 11.0527 36.2665C9.49846 35.2303 7.94418 33.676 7.77148 31.6036Z" fill="white"/>
<path d="M10.7073 36.6119C12.6069 38.6842 15.5428 37.9934 17.9606 38.5115C18.306 38.5115 18.6514 38.6842 18.9967 38.6842C18.6514 38.5115 18.306 38.5115 17.9606 38.3388C16.0609 37.648 15.7155 35.7484 14.6793 34.1941C16.0609 35.0576 17.0971 36.2665 18.306 37.4753C19.1694 38.1661 20.2056 38.5115 21.4145 38.8569C21.0691 39.0296 20.7237 38.8569 20.3783 39.0296C18.306 39.5477 16.2336 40.2385 13.9885 39.5477C12.7796 38.8569 11.3981 37.8207 10.7073 36.6119Z" fill="white"/>
<path d="M35.5755 41.2747C33.5032 41.9655 31.4308 41.2747 29.7038 40.0658C29.013 39.7204 28.495 39.0296 27.6315 39.0296H26.768C28.3223 39.7204 29.8765 40.7566 31.0854 42.1382C30.74 42.4835 30.5673 42.6562 30.2219 42.8289C29.013 41.4474 27.6315 40.2385 25.9045 39.375C25.5591 39.375 25.3864 39.7204 25.041 39.7204C23.8321 40.5839 22.4505 41.6201 21.5871 43.0016L20.7236 42.1382C22.1051 40.7566 23.4867 39.7204 25.041 39.0296C23.4867 38.5115 22.4505 39.8931 21.2417 40.5839C19.8601 41.6201 17.9604 41.9655 16.2334 41.2747C15.1973 40.9293 14.3338 40.4112 13.8157 39.5477C15.1973 40.5839 17.0969 40.5839 18.6512 39.8931C20.7236 39.0296 22.7959 37.9934 25.2137 38.5115C25.5591 38.5115 25.9045 38.8569 26.2499 38.5115C28.1496 38.1661 30.0492 38.3388 31.7762 39.2023L33.5032 39.8931C35.0574 40.4112 36.7844 40.2385 38.3387 39.375C37.3025 40.4112 36.6117 41.102 35.5755 41.2747Z" fill="white"/>
<path d="M37.8207 39.2023C35.4029 40.0658 33.1578 39.0296 30.9128 38.6842H30.5674C31.6036 38.3388 32.6397 38.1661 33.5032 37.3026C34.7121 36.0937 35.921 34.8848 37.3026 34.0214C36.2664 35.4029 36.2664 37.3026 34.5394 38.1661C34.194 38.5115 33.5032 38.5115 33.1578 38.6842C33.8486 38.6842 34.194 38.3388 35.0575 38.3388C37.3026 37.9934 39.893 38.3388 41.4473 36.4391C40.5838 37.648 39.0296 38.8569 37.8207 39.2023Z" fill="white"/>
<path d="M39.0297 36.7846C37.9935 37.13 36.612 37.13 35.4031 37.6481C37.3027 35.9211 37.3027 33.3306 38.5116 31.431C38.857 30.9129 39.2024 30.3948 39.7205 29.704C38.857 31.2583 39.3751 33.3306 38.3389 34.8849C37.9935 35.5757 37.4754 36.0938 36.9574 36.6119C37.13 36.6119 37.3027 36.4392 37.4754 36.2665C39.0297 34.8849 40.7567 34.3668 42.4837 33.1579C43.1745 32.6398 43.6926 32.1217 44.0379 31.2583C43.8652 33.8487 41.2748 36.0938 39.0297 36.7846Z" fill="white"/>
<path d="M41.9655 32.6398C40.9293 33.1579 40.0658 33.676 39.375 34.5395C40.7566 32.2944 40.0658 29.1859 40.9293 26.7681L41.2747 25.9046C41.102 27.4589 41.7928 28.6678 41.6201 30.222C41.6201 31.2582 41.2747 31.949 40.7566 32.8125C41.4474 31.949 41.7928 30.9128 42.6563 30.222C43.8651 29.1859 45.074 27.8043 45.2467 26.25C45.7648 28.8405 44.2105 31.2582 41.9655 32.6398Z" fill="white"/>
<path d="M31.6037 32.4671C32.1218 32.1217 32.6399 31.7763 32.9853 31.4309H32.6399C32.2945 31.4309 32.2945 31.0855 32.2945 31.0855L31.431 30.222V30.0493C31.431 30.222 31.2583 30.3947 31.0856 30.3947C31.0856 30.5674 31.0856 30.7401 31.2583 30.7401C31.6037 30.9128 31.9491 31.0855 31.9491 31.2582C31.7764 31.6036 31.2583 31.7763 31.6037 32.2944C31.7764 32.2944 31.431 32.2944 31.6037 32.4671ZM26.7681 21.2417C26.9408 21.4144 27.1135 21.2417 27.1135 21.069C27.2862 21.069 27.4589 21.2417 27.4589 21.4144H27.8043C27.8043 20.8963 28.6678 21.069 28.8405 20.3783H28.6678C28.6678 20.3783 28.4951 20.3783 28.4951 20.2056L28.8405 19.8602C28.1497 19.5148 27.6316 19.1694 26.9408 18.9967C26.5954 18.9967 26.4227 18.9967 26.0774 18.824C26.2501 19.1694 26.0774 19.8602 26.2501 20.2056L26.5954 20.3783C26.7681 20.0329 26.9408 20.0329 27.1135 19.8602H27.4589V20.3783C27.4589 21.069 26.9408 21.069 26.7681 21.2417ZM34.0214 25.9046C33.676 26.9408 33.3306 27.8042 32.8126 28.495C32.4672 28.8404 32.4672 29.1858 32.1218 29.3585L32.8126 29.8766V29.7039C32.8126 29.7039 32.8126 29.5312 32.9853 29.5312C33.3306 29.5312 33.3306 29.8766 33.3306 29.8766C33.3306 30.222 33.5033 30.222 33.5033 30.5674C35.2303 28.6677 36.0938 26.4227 36.2665 24.0049L36.4392 23.8322H34.3668C34.3668 24.1776 34.3668 24.6957 34.1941 25.0411L34.5395 25.3865V25.7319C34.1941 26.0773 34.1941 26.0773 34.0214 25.9046ZM32.2945 19.8602C31.9491 19.5148 31.7764 18.9967 31.2583 18.6513C30.5675 19.3421 29.8767 20.0329 29.3586 20.7237L29.5313 20.8964C29.5313 20.7237 29.704 20.551 29.704 20.551C29.8767 20.2056 30.0494 20.551 30.3948 20.551H31.431C31.7764 20.7237 31.7764 20.8963 31.9491 21.069V21.4144C31.9491 21.9325 32.2945 21.2417 32.4672 21.4144C32.6399 21.4144 32.8126 21.4144 32.8126 21.5871C32.8126 21.9325 33.1579 21.7598 33.1579 21.9325C33.1579 22.1052 32.9853 22.1052 32.9853 22.1052C32.9853 22.4506 32.6399 22.4506 32.8126 22.6233C33.1579 22.6233 33.1579 22.2779 33.3306 22.1052C33.1579 21.7598 33.1579 21.4144 32.9853 21.069C32.6399 21.069 32.6399 20.7237 32.4672 20.7237C31.9491 20.3783 32.4672 20.2056 32.2945 19.8602ZM26.2501 34.194C26.7681 34.0213 27.2862 34.0214 27.977 33.8487C27.8043 33.8487 27.6316 33.8487 27.6316 33.676C27.2862 33.676 27.2862 33.3306 27.1135 32.9852C27.1135 32.8125 27.1135 32.6398 27.2862 32.4671C27.1135 32.1217 26.7681 32.4671 26.4227 32.2944C26.4227 32.2944 26.2501 32.1217 26.0774 32.1217L26.2501 32.2944V34.194ZM26.7681 28.8404C26.9408 28.8404 26.7681 29.1858 26.9408 29.1858C27.2862 29.0131 27.4589 29.5312 27.6316 29.1858C27.6316 28.8404 27.977 28.8404 28.1497 28.8404C28.4951 28.6677 28.8405 28.495 28.8405 27.9769C28.4951 27.9769 28.4951 28.1496 28.4951 28.3223C28.3224 28.495 28.1497 27.9769 28.1497 28.1496V28.3223C27.8043 28.6677 27.8043 28.1496 27.6316 28.3223V28.495C27.4589 28.1496 27.2862 28.3223 27.1135 28.1496H26.7681C26.7681 28.3223 26.4227 28.1496 26.4227 28.3223C26.2501 28.3223 26.2501 28.6677 26.0774 28.6677C25.732 28.6677 25.732 29.0131 25.5593 28.8404V29.0131H25.9047C26.0774 28.6677 26.4227 29.0131 26.7681 28.8404ZM28.6678 26.25C28.6678 26.4227 28.6678 26.5954 28.8405 26.5954C29.1859 26.5954 29.0132 26.9408 29.1859 26.9408C29.3586 26.9408 29.1859 26.7681 29.1859 26.5954C29.1859 26.25 29.0132 26.25 28.6678 26.25C28.8405 26.25 28.8405 26.25 28.6678 26.25C28.8405 26.0773 28.8405 26.0773 28.6678 26.25ZM28.4951 16.5789C27.8043 16.2335 27.1135 16.2335 26.2501 16.2335V18.3059H26.4227C27.4589 18.4786 28.6678 18.824 29.5313 19.5148V19.6875C29.8767 19.3421 30.2221 18.824 30.5675 18.4786L30.9129 18.3059H30.7402C30.0494 17.4424 29.1859 16.9243 28.4951 16.5789ZM15.5428 24.3503L15.7155 25.5592C15.7155 25.9046 16.0609 26.5954 16.0609 26.9408C16.0609 26.7681 16.0609 26.5954 16.4063 26.5954C16.4063 26.4227 16.579 26.25 16.4063 26.25C16.4063 25.9046 16.579 25.5592 16.7517 25.2138C17.0971 25.2138 17.0971 24.8684 17.4425 24.6957C17.6152 24.6957 17.7879 25.0411 17.7879 25.0411C17.4425 24.6957 17.4425 24.3503 17.6152 24.0049H15.3701L15.5428 24.3503ZM27.977 27.6315C28.1497 27.4588 28.4951 27.4588 28.4951 27.2862C28.3224 27.1135 28.3224 27.2862 27.977 27.6315C27.8043 27.6315 27.8043 27.4588 27.977 27.6315ZM32.2945 24.0049L32.6399 24.3503C32.9852 24.523 32.6399 24.6957 32.9853 24.8684C33.3306 25.0411 33.3306 25.2138 33.3306 25.5592V25.3865C33.5033 25.0411 33.3306 24.523 33.5033 24.3503C33.1579 24.1776 32.6399 24.1776 32.2945 24.0049ZM29.5313 29.0131C29.8767 29.0131 29.8767 29.3585 30.2221 29.3585C30.5675 29.1858 30.9129 29.3585 31.0856 29.1858C31.0856 28.8404 31.2583 28.8404 31.431 28.495C31.6037 28.6677 31.6037 28.8404 31.6037 29.0131C31.7764 28.6677 31.9491 28.6677 32.1218 28.3223C32.4672 27.6315 32.9853 26.9408 33.1579 26.25C32.9853 26.25 32.8126 26.25 32.6399 26.4227C32.4672 26.4227 32.2945 26.5954 31.9491 26.4227H31.7764C31.7764 26.5954 31.6037 26.7681 31.431 26.5954C31.2583 26.5954 31.2583 26.4227 31.2583 26.25V26.5954C31.0856 26.7681 31.0856 26.9408 30.9129 26.9408C30.7402 27.1135 30.5675 27.1135 30.3948 27.2862C30.3948 27.6315 30.0494 27.6315 29.8767 27.6315H30.2221C30.5675 27.6315 30.5675 27.2862 30.5675 27.2862C30.7402 27.2862 30.9129 27.1135 30.9129 27.2862C31.0856 27.4588 31.0856 27.6315 31.0856 27.9769C30.9129 28.1496 31.0856 28.3223 30.9129 28.6677C30.9129 29.0131 30.5675 29.0131 30.5675 29.1858C30.3948 29.3585 30.2221 29.3585 30.2221 29.3585C29.704 29.0131 29.1859 29.0131 28.4951 29.0131C28.4951 29.0131 28.3224 29.0131 28.4951 29.1858C29.0132 28.8404 29.1859 28.8404 29.5313 29.0131ZM25.3866 35.0575C22.6234 34.8848 20.2056 34.0213 18.306 31.949L16.9244 33.3306C18.9968 35.2302 21.5872 36.4391 24.3504 36.6118C24.6958 36.6118 25.3866 36.6118 25.732 36.7845L25.5593 36.6118L25.3866 35.0575ZM22.6234 27.6315C23.3142 28.1496 24.1777 28.6677 25.2139 28.6677V28.1496C25.2139 27.9769 25.5593 27.9769 25.5593 27.9769C25.5593 27.9769 25.732 27.8042 25.5593 27.8042C25.3866 27.8042 25.3866 27.4588 25.3866 27.4588C25.3866 27.4588 25.5593 27.4588 25.5593 27.2862C25.3866 27.1135 25.5593 26.9408 25.5593 26.9408L25.732 26.7681C25.3866 26.9408 24.8685 26.7681 24.5231 26.4227L24.1777 26.0773L22.6234 27.6315ZM21.9326 25.3865C21.7599 25.3865 21.7599 25.3865 21.9326 25.3865H21.5872C21.5872 25.0411 21.2418 25.2138 21.0691 25.0411L21.5872 26.0773C21.7599 26.4227 21.9326 26.5954 22.1053 26.9408C22.278 26.5954 22.4507 26.5954 22.6234 26.25V25.9046C22.6234 25.7319 22.6234 25.5592 22.4507 25.5592C22.278 25.5592 22.4507 25.9046 22.4507 25.9046H22.278C22.1053 25.9046 21.9326 25.7319 21.9326 25.5592C22.1053 25.5592 21.9326 25.5592 21.9326 25.3865ZM23.3142 25.5592C23.3142 25.7319 23.1415 25.9046 22.9688 25.9046C23.1415 25.7319 23.3142 25.5592 23.4869 25.5592H23.3142ZM25.3866 32.2944C23.6596 32.2944 22.278 31.6036 20.8964 30.5674C20.8964 30.7401 21.2418 30.9128 21.0691 30.9128C20.8964 31.0855 20.7237 31.0855 20.551 31.0855C20.2056 31.0855 19.8602 31.4309 19.5149 31.4309C19.1695 31.6036 19.1695 31.0855 18.8241 31.0855C20.7237 32.8125 22.9688 33.676 25.5593 33.8487L25.732 34.0214V31.949L25.3866 32.2944Z" fill="#0468B1"/>
<path d="M17.7879 31.4309C17.4425 31.2582 17.4425 31.0855 17.0971 30.7401C16.7517 30.7401 16.7517 30.3947 16.579 30.3947V30.0493V30.222C16.2336 30.3947 16.2336 30.0493 16.0609 29.8766C15.7155 29.7039 15.8882 29.1858 15.5428 29.3585C15.3701 29.3585 15.3701 29.1858 15.1974 29.1858C14.852 29.1858 14.852 28.8404 14.852 28.8404V29.0131C14.5066 29.0131 14.5066 28.6677 14.3339 28.6677H14.1612C13.9885 28.495 13.8158 28.3223 13.8158 27.9769C13.4704 27.6316 13.6431 27.2862 13.8158 26.9408C13.8158 26.9408 13.9885 26.7681 13.9885 26.5954C13.9885 26.4227 14.3339 26.4227 14.3339 26.4227C14.3339 26.4227 14.5066 26.4227 14.5066 26.5954C14.6793 26.5954 14.852 26.5954 14.852 26.4227C15.0247 26.25 15.1974 26.25 15.1974 26.25C15.3701 26.4227 15.3701 26.5954 15.5428 26.5954L15.3701 26.4227C15.1974 25.7319 15.0247 25.0411 15.0247 24.3503V23.8322H12.6069C12.7796 26.0773 13.2977 27.9769 14.3339 29.8766C14.6793 30.9128 15.5428 31.6036 16.2336 32.4671L17.6152 31.0855L17.7879 31.4309ZM20.0329 15.1973C19.6875 15.5427 19.1694 15.8881 18.824 16.2335C19.3421 16.5789 19.8602 17.097 20.2056 17.4424V17.6151C21.2418 16.5789 22.7961 15.8881 24.1777 15.5427C24.5231 15.5427 24.8684 15.37 25.2138 15.5427V13.6431C23.3142 13.6431 21.7599 14.3339 20.0329 15.1973ZM18.3059 22.6233C18.3059 22.9687 18.3059 23.3141 18.1332 23.6595C18.4786 23.4868 18.6513 23.6595 18.9967 23.6595C18.824 23.6595 18.9967 23.3141 18.824 23.3141C18.824 23.1414 18.824 22.9687 18.9967 22.796C18.9967 22.4506 19.3421 22.4506 19.3421 22.1052C19.3421 21.7598 19.6875 21.9325 19.8602 21.7598C20.0329 21.7598 19.8602 21.5871 19.8602 21.4144C20.0329 21.2417 20.2056 21.2417 20.3783 21.0691L20.7237 20.7237C21.0691 20.7237 21.0691 20.2056 21.5872 20.2056C21.0691 19.8602 20.551 19.1694 20.0329 18.824C19.3421 19.8602 18.6513 21.0691 18.3059 22.6233ZM18.6513 25.3865C18.6513 25.2138 18.4786 25.2138 18.4786 25.0411C18.6513 24.6957 18.4786 24.3503 18.824 24.3503C18.4786 24.3503 18.4786 24.523 18.1332 24.3503L18.3059 24.523C18.3059 24.8684 18.4786 25.3865 18.4786 25.9046C18.4786 25.5592 18.4786 25.3865 18.6513 25.3865Z" fill="#0468B1"/>
<path d="M18.306 16.7516L17.6152 17.7878C16.4064 19.5148 15.7156 21.4145 15.7156 23.4868H17.7879V23.3141C17.9606 21.4145 18.6514 19.5148 20.033 18.1332C19.3422 17.6151 18.8241 17.2697 18.306 16.7516ZM24.005 29.7039C24.1777 29.5312 24.3504 29.3585 24.5231 29.3585C23.8324 29.5312 23.487 29.0131 22.7962 28.8404C22.4508 28.6677 22.1054 28.495 21.9327 28.1496C21.5873 28.6677 21.0692 29.1858 20.5511 29.5312C20.8965 29.5312 20.8965 29.8766 21.0692 29.8766C22.1054 30.7401 23.487 31.0855 24.5231 31.4309L24.1777 31.2582C23.8324 30.9128 23.6597 30.5674 23.487 30.222C24.005 30.0493 24.005 29.8766 24.005 29.7039ZM19.3422 24.1776V24.523C19.3422 24.8684 18.9968 24.523 18.9968 24.6957V25.0411C18.8241 25.3865 19.3422 25.5592 19.3422 26.0773C19.5149 26.4227 19.3422 26.5954 19.6876 26.9408C19.6876 27.2862 19.6876 27.977 20.033 28.3223V28.6677C20.033 29.0131 19.6876 29.0131 19.6876 29.0131C19.6876 29.0131 19.8603 29.0131 19.8603 29.1858C20.3784 28.495 20.8965 27.977 21.76 27.2862L21.4146 26.9408C21.0692 26.25 20.5511 25.3865 20.3784 24.523L20.2057 24.3503C20.2057 24.6957 20.033 24.6957 20.033 25.0411C19.8603 25.0411 19.6876 24.8684 19.6876 24.8684C19.6876 24.8684 19.5149 24.6957 19.6876 24.523H19.8603V24.1776C19.8603 24.0049 19.6876 23.8322 19.8603 23.8322C20.033 23.8322 20.2057 24.0049 20.2057 24.1776C20.3784 24.1776 20.5511 24.1776 20.5511 24.0049C20.5511 23.8322 20.7238 23.6595 20.5511 23.6595C20.7238 23.3141 20.5511 23.1414 20.5511 22.796C20.3784 22.6233 20.2057 22.796 20.033 22.796C19.5149 22.9687 20.2057 23.3141 20.033 23.8322C19.6876 24.3503 19.5149 24.0049 19.3422 24.1776ZM36.9574 24.1776C36.7847 26.5954 35.9212 28.495 34.7123 30.3947C34.3669 30.7401 34.3669 31.0855 33.8488 31.2582C34.3669 31.6036 34.885 32.2944 35.4031 32.8125C37.4754 30.3947 38.6843 27.6316 38.6843 24.3503V24.1776H36.9574ZM18.306 15.8881C20.3784 13.9885 22.6235 12.9523 25.3866 12.7796V10.7072C22.6235 10.8799 20.2057 11.7434 17.9606 13.2977C17.6152 13.6431 17.2699 13.9885 16.7518 14.3339C17.4425 14.6793 17.9606 15.1973 18.306 15.8881ZM25.3866 16.2335C23.6597 16.4062 22.1054 17.097 20.7238 18.1332C21.2419 18.4786 21.76 19.1694 22.1054 19.5148C22.1054 19.5148 22.1054 19.3421 22.2781 19.3421C22.9689 18.9967 23.6597 18.4786 24.3504 18.3059C24.6958 18.3059 25.0412 18.1332 25.3866 18.1332V16.2335ZM25.3866 18.824C24.1777 18.9967 23.3143 19.5148 22.4508 20.3783H22.6235C22.7962 20.551 22.9689 20.551 23.1416 20.7237C23.1416 20.8964 22.9689 20.8964 22.9689 21.0691H23.1416C23.3143 21.0691 23.3143 21.0691 23.3143 20.8964C23.487 20.7237 23.487 21.0691 23.6597 21.0691H24.005C24.1777 20.8964 24.3504 21.0691 24.3504 20.8964C24.6958 20.551 24.5231 20.3783 24.6958 20.2056C24.8685 20.2056 24.6958 20.3783 24.6958 20.551C25.0412 20.7237 25.0412 20.3783 25.3866 20.551V18.824ZM25.5593 21.9325C25.2139 22.2779 25.0412 22.2779 24.6958 22.4506C24.5231 22.6233 24.6958 22.796 24.3504 22.796C24.3504 22.9687 24.005 23.1414 24.005 23.1414C23.8324 23.4868 24.005 23.6595 23.8324 24.0049C23.487 24.3503 23.487 23.6595 23.3143 23.6595H22.7962C22.6235 23.8322 22.4508 24.0049 22.6235 24.0049C22.6235 24.1776 22.2781 24.0049 22.2781 24.3503C22.6235 24.3503 22.6235 24.3503 22.9689 24.1776H23.3143C23.3143 24.1776 23.487 24.1776 23.487 24.3503C23.6597 24.3503 23.6597 24.0049 23.6597 24.0049C23.6597 23.8322 23.8324 23.8322 24.005 23.8322C24.1777 23.8322 24.005 24.0049 24.005 24.0049C24.3504 24.1776 24.005 24.3503 23.8324 24.523C23.8324 24.6957 23.8324 24.8684 23.487 24.8684V24.6957C23.487 24.8684 23.487 25.0411 23.6597 25.0411C23.8324 24.8684 23.8324 24.6957 24.005 24.6957C24.1777 24.523 24.005 24.3503 24.1777 24.1776C24.5231 24.1776 24.8685 24.0049 25.2139 24.3503V24.6957C25.2139 24.8684 25.0412 25.0411 24.8685 25.0411V25.3865C24.6958 25.7319 24.3504 25.7319 24.005 25.7319C24.3504 26.0773 25.0412 26.0773 25.5593 26.0773C25.9047 26.0773 25.732 25.7319 25.9047 25.5592C26.0774 25.2138 26.4228 25.3865 26.7682 25.2138C26.9409 24.8684 27.1136 24.8684 27.1136 24.523C26.7682 24.3503 26.7682 24.1776 26.7682 24.0049C26.5955 23.8322 26.5955 23.6595 26.4228 23.6595V23.4868C26.4228 23.3141 26.5955 23.3141 26.5955 23.1414C26.4228 22.9687 26.4228 22.796 26.4228 22.796C26.0774 22.796 26.0774 22.4506 25.9047 22.4506C25.9047 22.2779 25.5593 22.2779 25.5593 22.1052C25.2139 22.2779 25.2139 21.7598 24.8685 21.7598V21.4145C25.0412 21.2418 25.2139 21.4145 25.2139 21.4145H25.0412C24.8685 21.2418 24.6958 21.4145 24.5231 21.4145C25.5593 21.7598 25.3866 21.7598 25.5593 21.9325Z" fill="#0468B1"/>
<path d="M14.8521 23.4869V23.1415C15.0248 20.8964 15.7156 18.9967 16.9244 17.2697C17.2698 16.9244 17.4425 16.4063 17.9606 16.2336L16.579 14.852C14.6794 17.097 13.2978 19.6875 13.1251 22.4507C13.1251 22.7961 13.1251 23.3142 12.9524 23.6595C13.4705 23.3142 14.334 23.3142 14.8521 23.4869ZM33.6761 31.7763C33.5034 32.1217 32.9853 32.4671 32.6399 32.8125C32.2945 33.1579 31.6037 33.3306 31.2583 34.0214C30.9129 34.3668 30.9129 34.5395 30.5675 34.7122C30.3948 35.0576 30.2221 35.0576 29.8767 35.2303C29.3586 35.7484 28.8406 34.8849 28.4952 34.8849L27.459 35.0576C27.1136 35.0576 26.7682 35.2303 26.4228 35.0576V37.1299H26.5955C29.8767 36.9572 32.8126 35.7484 35.2304 33.5033L33.6761 32.1217V31.7763ZM26.2501 12.6069C26.4228 12.4342 26.4228 12.4342 26.5955 12.6069V12.9523H26.7682C28.3225 13.125 29.8767 13.4704 31.0856 14.3339C31.431 14.1612 31.7764 13.9885 31.9491 14.3339C32.2945 14.1612 32.2945 14.6793 32.6399 14.6793C32.8126 14.6793 33.158 15.1974 33.158 15.5428C33.158 15.7155 33.5034 15.8882 33.5034 15.8882C33.8488 15.5428 34.1942 15.0247 34.5396 14.6793L34.885 14.5066C32.8126 12.6069 30.2221 11.398 27.6317 11.0526C27.2863 11.0526 26.5955 11.0526 26.2501 10.8799V12.6069Z" fill="#0468B1"/>
<path d="M26.25 15.5427C26.5954 15.37 26.7681 15.5427 27.1135 15.5427C28.4951 15.8881 29.7039 16.2335 30.9128 17.097C30.7401 16.9243 30.5674 16.7516 30.5674 16.5789C30.5674 16.2335 30.222 16.2335 30.222 16.0608H30.3947C30.7401 16.4062 30.7401 16.4062 30.9128 16.7516C31.0855 16.7516 31.2582 16.7516 31.2582 16.9243C31.2582 17.097 31.2582 17.2697 31.6036 17.4424C31.6036 17.7878 32.1217 18.1332 32.1217 18.4786C32.1217 18.6513 32.2944 18.4786 32.2944 18.4786L32.6398 18.9967V19.3421C32.8125 19.3421 32.9852 19.1694 32.9852 19.1694C33.3306 19.3421 32.9852 19.5148 32.9852 19.6875H33.3306C33.3306 19.8602 33.1579 20.0329 33.1579 20.0329C33.1579 20.2056 33.3306 20.2056 33.5033 20.2056C33.676 20.2056 33.676 20.3783 33.676 20.551C34.0214 20.8964 33.5033 21.2417 33.676 21.5871C33.8487 21.9325 33.676 21.9325 33.5033 22.2779C33.5033 22.6233 33.1579 22.6233 33.1579 22.9687H32.8125C32.6398 23.1414 32.9852 23.3141 32.8125 23.4868H33.5033C33.3306 23.1414 33.5033 22.796 33.676 22.4506C33.8487 22.1052 33.8487 21.9325 34.0214 21.7598C34.0214 21.7598 34.1941 21.5871 34.1941 21.7598C34.1941 22.1052 34.1941 22.2779 34.0214 22.4506C34.3668 22.796 34.1941 23.1414 34.3668 23.4868H36.4391V23.3141C36.2664 22.1052 36.0938 20.7237 35.5757 19.6875C35.403 19.6875 35.2303 19.8602 35.2303 19.6875C35.2303 19.6875 35.0576 19.6875 35.2303 19.5148C34.8849 19.1694 34.8849 18.9967 34.5395 18.6513C34.1941 18.6513 34.0214 18.3059 33.676 18.3059C33.3306 18.3059 33.5033 17.7878 33.1579 17.9605C32.9852 17.9605 32.8125 17.6151 32.8125 17.6151C32.8125 17.2697 32.8125 16.9243 32.4671 16.5789C32.1217 16.4062 32.1217 16.9243 31.949 16.7516C31.7763 16.7516 31.949 16.4062 31.7763 16.4062C31.7763 16.2335 31.6036 16.2335 31.6036 16.0608C31.949 15.7154 31.2582 15.7154 31.2582 15.1973C31.2582 14.8519 30.9128 14.8519 30.7401 14.5065C29.7039 14.1612 28.6678 13.6431 27.4589 13.4704C27.1135 13.4704 26.9408 13.4704 26.5954 13.2977V13.4704C26.25 14.3339 26.25 14.8519 26.25 15.5427Z" fill="#0468B1"/>
<path d="M33.676 16.2336C33.8487 16.2336 33.8487 16.579 34.0214 16.579C34.5395 16.9244 34.7122 17.4424 35.0576 17.6151C35.403 18.1332 35.9211 18.6513 35.9211 19.1694C36.4392 20.551 36.9573 21.7599 36.9573 23.4869H39.0296C38.8569 23.3142 39.0296 23.1415 38.8569 22.7961C38.5116 19.6875 37.3027 17.0971 35.2303 14.852C34.8849 15.3701 34.3668 15.8882 33.676 16.2336Z" fill="#0468B1"/>
<path d="M26.4226 12.2615C26.4226 12.0888 26.768 12.2615 26.768 12.2615L27.8042 11.9161C28.1496 11.9161 28.6677 11.9161 28.8404 12.2615C28.495 12.6069 28.3223 12.6069 27.9769 12.6069C27.4588 12.6069 26.9407 12.7796 26.4226 12.2615ZM32.2943 13.4704C32.467 13.4704 32.6397 13.6431 32.6397 13.8158C32.6397 13.9885 32.8124 14.1612 32.6397 14.1612C32.2943 14.3339 32.2943 13.8158 31.9489 13.8158V13.6431C32.1216 13.2977 32.1216 13.6431 32.2943 13.4704Z" fill="white"/>
</g>
<defs>
<clipPath id="clip0_52_3626">
<rect width="51.8092" height="105" fill="white"/>
</clipPath>
</defs>
</svg>
