<svg width="25" height="24" viewBox="0 0 25 24" fill="none" xmlns="http://www.w3.org/2000/svg">
<path d="M16.6035 7C16.6035 8.06087 16.1821 9.07828 15.4319 9.82843C14.6818 10.5786 13.6644 11 12.6035 11C11.5426 11 10.5252 10.5786 9.77509 9.82843C9.02494 9.07828 8.60352 8.06087 8.60352 7C8.60352 5.93913 9.02494 4.92172 9.77509 4.17157C10.5252 3.42143 11.5426 3 12.6035 3C13.6644 3 14.6818 3.42143 15.4319 4.17157C16.1821 4.92172 16.6035 5.93913 16.6035 7ZM12.6035 14C10.747 14 8.96652 14.7375 7.65377 16.0503C6.34101 17.363 5.60352 19.1435 5.60352 21H19.6035C19.6035 19.1435 18.866 17.363 17.5533 16.0503C16.2405 14.7375 14.46 14 12.6035 14Z" stroke="#9553FF" stroke-width="2" stroke-linecap="round" stroke-linejoin="round"/>
</svg>
