<svg width="20" height="20" viewBox="0 0 20 20" fill="none" xmlns="http://www.w3.org/2000/svg">
<path d="M5.8335 1.66675C5.17045 1.66675 4.53457 1.93014 4.06573 2.39898C3.59689 2.86782 3.3335 3.50371 3.3335 4.16675V15.8334C3.3335 16.4965 3.59689 17.1323 4.06573 17.6012C4.53457 18.07 5.17045 18.3334 5.8335 18.3334H14.1668C14.8299 18.3334 15.4658 18.07 15.9346 17.6012C16.4034 17.1323 16.6668 16.4965 16.6668 15.8334V15.0001C16.6668 14.5398 16.2937 14.1667 15.8335 14.1667C15.3733 14.1667 15.0002 14.5398 15.0002 15.0001V15.8334C15.0002 16.0544 14.9124 16.2664 14.7561 16.4227C14.5998 16.579 14.3878 16.6667 14.1668 16.6667H5.8335C5.61248 16.6667 5.40052 16.579 5.24424 16.4227C5.08796 16.2664 5.00016 16.0544 5.00016 15.8334V4.16675C5.00016 3.94573 5.08796 3.73377 5.24424 3.57749C5.40052 3.42121 5.61248 3.33341 5.8335 3.33341H14.1668C14.3878 3.33341 14.5998 3.42121 14.7561 3.57749C14.9124 3.73377 15.0002 3.94573 15.0002 4.16675V5.00008C15.0002 5.46032 15.3733 5.83341 15.8335 5.83341C16.2937 5.83341 16.6668 5.46032 16.6668 5.00008V4.16675C16.6668 3.50371 16.4034 2.86782 15.9346 2.39898C15.4658 1.93014 14.8299 1.66675 14.1668 1.66675H5.8335Z" fill="#F04438"/>
<path d="M13.9228 6.91083C13.5973 6.58539 13.0697 6.58539 12.7442 6.91083C12.4188 7.23626 12.4188 7.7639 12.7442 8.08934L13.8217 9.16675H10.0002C9.53993 9.16675 9.16683 9.53984 9.16683 10.0001C9.16683 10.4603 9.53993 10.8334 10.0002 10.8334H13.8217L12.7442 11.9108C12.4188 12.2363 12.4188 12.7639 12.7442 13.0893C13.0697 13.4148 13.5973 13.4148 13.9228 13.0893L16.4228 10.5893C16.7482 10.2639 16.7482 9.73626 16.4228 9.41083L13.9228 6.91083Z" fill="#F04438"/>
</svg>
