<svg width="28" height="37" viewBox="0 0 38 47" fill="none" xmlns="http://www.w3.org/2000/svg">
                            <path d="M36.1859 11.3728L25.6203 0.960254C25.0078 0.347754 24.1656 0.0415039 23.3234 0.0415039H4.94844C2.34531 0.0415039 0.125 2.18525 0.125 4.86494V41.6149C0.125 44.2181 2.26875 46.4384 4.94844 46.4384H32.2812C34.8844 46.4384 37.1047 44.2946 37.1047 41.6149V13.6696C37.1047 12.8274 36.7984 11.9853 36.1859 11.3728ZM25.6969 5.86025L31.4391 11.5259H25.6969V5.86025ZM32.3578 42.9165H4.94844C4.18281 42.9165 3.57031 42.304 3.57031 41.5384V4.78838C3.57031 4.02275 4.18281 3.41025 4.94844 3.41025H22.2516V13.2103C22.2516 14.129 23.0172 14.9712 24.0125 14.9712H33.7359V41.5384C33.6594 42.304 33.0469 42.9165 32.3578 42.9165Z" fill="#9553FF" />
                            <path d="M28.0699 30.6664C27.1512 30.6664 26.309 31.432 26.309 32.4273V34.9539H10.9965V32.3508C10.9965 31.432 10.2309 30.5898 9.23555 30.5898C8.24024 30.5898 7.47461 31.3555 7.47461 32.3508V35.3367C7.47461 37.0211 8.85273 38.3227 10.4605 38.3227H26.6152C28.2996 38.3227 29.6012 36.9445 29.6012 35.3367V32.3508C29.7543 31.432 28.9887 30.6664 28.0699 30.6664Z" fill="#9553FF" />
                            <path d="M22.6722 23.6701L20.7582 25.5076V19.4591C20.7582 18.5404 19.9925 17.6982 18.9972 17.6982C18.0785 17.6982 17.2363 18.4638 17.2363 19.4591V25.5076L15.3222 23.6701C15.016 23.3638 14.5566 23.2107 14.0972 23.2107C13.6379 23.2107 13.1785 23.3638 12.8722 23.7467C12.1832 24.4357 12.2597 25.5076 12.8722 26.1966L17.6191 30.867C18.3082 31.4795 19.38 31.556 19.9925 30.867L24.816 26.1966C25.505 25.5076 25.505 24.4357 24.8925 23.7467C24.4332 23.0576 23.3613 23.0576 22.6722 23.6701Z" fill="#9553FF" />
                        </svg>